<svg width="144" height="43" viewBox="0 0 144 43" fill="none" xmlns="http://www.w3.org/2000/svg">
<path d="M28.0675 35.2923C26.5497 35.2923 25.1861 35.0432 23.9766 34.5452C22.7671 34.0235 21.7355 33.312 20.8818 32.4108C20.028 31.486 19.364 30.4425 18.8897 29.2804C18.4391 28.1184 18.2138 26.897 18.2138 25.6164C18.2138 23.8615 18.6051 22.2607 19.3877 20.8141C20.194 19.3437 21.3324 18.1698 22.8027 17.2924C24.2731 16.4149 26.0161 15.9762 28.0319 15.9762C30.0477 15.9762 31.779 16.4149 33.2256 17.2924C34.6722 18.1698 35.7513 19.32 36.4627 20.7429L31.8027 22.1658C31.3995 21.4781 30.8659 20.9564 30.2019 20.6006C29.5379 20.2212 28.8027 20.0315 27.9964 20.0315C27.0952 20.0315 26.2652 20.2686 25.5063 20.7429C24.7711 21.1935 24.1901 21.8457 23.7632 22.6994C23.3363 23.5295 23.1229 24.5018 23.1229 25.6164C23.1229 26.7073 23.3363 27.6796 23.7632 28.5334C24.2138 29.3634 24.8067 30.0275 25.5418 30.5255C26.277 30.9998 27.0952 31.2369 27.9964 31.2369C28.5655 31.2369 29.0991 31.1421 29.5971 30.9524C30.1189 30.7626 30.5813 30.5018 30.9845 30.1698C31.3877 29.8377 31.6841 29.4583 31.8738 29.0314L36.5339 30.4543C36.107 31.3792 35.4785 32.2093 34.6485 32.9444C33.8422 33.6796 32.8817 34.2606 31.7671 34.6875C30.6762 35.0907 29.443 35.2923 28.0675 35.2923ZM54.8345 20.4228C53.3878 20.4228 52.0954 20.7074 50.957 21.2765C49.8187 21.822 49.0005 22.6164 48.5025 23.6599V34.9365H43.7357V16.2963H48.1112V20.2805C48.7752 18.9999 49.6171 17.992 50.6369 17.2568C51.6566 16.5216 52.7357 16.1184 53.874 16.0473C54.1349 16.0473 54.3364 16.0473 54.4787 16.0473C54.621 16.0473 54.7396 16.0592 54.8345 16.0829V20.4228ZM70.1622 35.2923C68.6682 35.2923 67.3164 35.0432 66.1069 34.5452C64.8974 34.0235 63.8658 33.3239 63.0121 32.4464C62.1583 31.5452 61.4943 30.5255 61.02 29.3871C60.5694 28.2251 60.3441 27.0038 60.3441 25.7231C60.3441 23.9445 60.7354 22.32 61.518 20.8496C62.3243 19.3793 63.4627 18.2054 64.933 17.3279C66.4271 16.4267 68.182 15.9762 70.1978 15.9762C72.2373 15.9762 73.9804 16.4267 75.427 17.3279C76.8737 18.2054 77.9764 19.3793 78.7353 20.8496C79.5179 22.2963 79.9092 23.8615 79.9092 25.5453C79.9092 25.8299 79.8974 26.1263 79.8736 26.4346C79.8499 26.7192 79.8262 26.9563 79.8025 27.1461H65.3955C65.4903 28.0947 65.763 28.9247 66.2136 29.6362C66.6879 30.3476 67.2808 30.8931 67.9923 31.2725C68.7275 31.6282 69.5101 31.8061 70.3401 31.8061C71.2887 31.8061 72.178 31.5808 73.0081 31.1302C73.8618 30.6559 74.4428 30.0393 74.7511 29.2804L78.842 30.4188C78.3914 31.3674 77.7393 32.2093 76.8855 32.9444C76.0555 33.6796 75.0713 34.2606 73.933 34.6875C72.7946 35.0907 71.5377 35.2923 70.1622 35.2923ZM65.2887 24.1224H75.0357C74.9409 23.1737 74.6681 22.3556 74.2175 21.6678C73.7907 20.9564 73.2215 20.4109 72.51 20.0315C71.7986 19.6283 71.0041 19.4267 70.1267 19.4267C69.2729 19.4267 68.4903 19.6283 67.7788 20.0315C67.0911 20.4109 66.5219 20.9564 66.0713 21.6678C65.6445 22.3556 65.3836 23.1737 65.2887 24.1224ZM85.8012 29.4227C85.8012 28.2132 86.1333 27.1579 86.7973 26.2567C87.485 25.3318 88.4336 24.6204 89.6431 24.1224C90.8526 23.6243 92.2399 23.3753 93.8052 23.3753C94.5878 23.3753 95.3822 23.4346 96.1885 23.5532C96.9949 23.6718 97.6945 23.8615 98.2873 24.1224V23.1263C98.2873 21.9405 97.9316 21.0275 97.2202 20.3872C96.5324 19.7469 95.5008 19.4267 94.1253 19.4267C93.1056 19.4267 92.1332 19.6046 91.2083 19.9603C90.2834 20.3161 89.3111 20.8378 88.2914 21.5255L86.7617 18.3951C87.9949 17.5888 89.2518 16.9841 90.5324 16.5809C91.8368 16.1777 93.2004 15.9762 94.6233 15.9762C97.2794 15.9762 99.3427 16.6402 100.813 17.9682C102.307 19.2963 103.054 21.1935 103.054 23.6599V29.6006C103.054 30.0986 103.137 30.4543 103.303 30.6678C103.493 30.8812 103.789 31.0116 104.192 31.0591V34.9365C103.766 35.0077 103.374 35.067 103.019 35.1144C102.687 35.1618 102.402 35.1855 102.165 35.1855C101.216 35.1855 100.493 34.9721 99.9948 34.5452C99.5205 34.1183 99.2241 33.5966 99.1055 32.98L98.9988 32.0195C98.1925 33.063 97.1846 33.8693 95.9751 34.4385C94.7656 35.0077 93.5324 35.2923 92.2755 35.2923C91.0423 35.2923 89.9277 35.0432 88.9317 34.5452C87.9593 34.0235 87.1886 33.3239 86.6194 32.4464C86.074 31.5452 85.8012 30.5373 85.8012 29.4227ZM97.398 30.3832C97.6589 30.0986 97.8723 29.814 98.0383 29.5294C98.2043 29.2449 98.2873 28.984 98.2873 28.7468V26.8615C97.7182 26.6243 97.1016 26.4465 96.4376 26.3279C95.7735 26.1856 95.1451 26.1144 94.5522 26.1144C93.319 26.1144 92.2992 26.3872 91.4929 26.9326C90.7103 27.4544 90.319 28.154 90.319 29.0314C90.319 29.5057 90.4494 29.9563 90.7103 30.3832C90.9712 30.8101 91.3506 31.1539 91.8486 31.4148C92.3467 31.6757 92.9395 31.8061 93.6273 31.8061C94.3387 31.8061 95.0384 31.6757 95.7261 31.4148C96.4138 31.1302 96.9711 30.7863 97.398 30.3832ZM140.734 34.9365H135.967V24.4781C135.967 23.0077 135.706 21.9287 135.184 21.2409C134.686 20.5295 133.987 20.1738 133.085 20.1738C132.161 20.1738 131.271 20.5413 130.417 21.2765C129.587 21.988 128.995 22.9247 128.639 24.0868V34.9365H123.872V24.4781C123.872 22.984 123.611 21.8931 123.089 21.2054C122.591 20.5176 121.892 20.1738 120.991 20.1738C120.066 20.1738 119.176 20.5295 118.323 21.2409C117.493 21.9524 116.9 22.8892 116.544 24.0512V34.9365H111.777V16.2963H116.082V19.7469C116.793 18.5374 117.742 17.6125 118.927 16.9722C120.113 16.3082 121.477 15.9762 123.018 15.9762C124.56 15.9762 125.757 16.3556 126.611 17.1145C127.489 17.8734 128.046 18.8101 128.283 19.9248C129.042 18.6441 130.002 17.6718 131.165 17.0078C132.35 16.32 133.678 15.9762 135.149 15.9762C136.311 15.9762 137.247 16.1896 137.959 16.6165C138.694 17.0196 139.263 17.5769 139.666 18.2884C140.07 18.9761 140.342 19.7587 140.485 20.6362C140.651 21.5137 140.734 22.403 140.734 23.3042V34.9365Z" fill="#333333"/>
<circle cx="4.41133" cy="20.1457" r="4.26875" fill="#333333"/>
</svg>
