<svg width="21" height="21" viewBox="0 0 21 21" fill="none" xmlns="http://www.w3.org/2000/svg">
<path d="M10.5809 13.8843H11.4405C12.0137 13.8843 13.1599 13.5404 13.1599 12.165C13.1599 10.7895 12.0137 10.4456 11.4405 10.4456H9.72118C9.14806 10.4456 8.00182 10.1017 8.00182 8.72625C8.00182 7.35076 9.14806 7.00689 9.72118 7.00689H10.5809M10.5809 13.8843H8.00182M10.5809 13.8843V15.6037M13.1599 7.00689H10.5809M10.5809 7.00689V5.28753M18.318 10.4456C18.318 14.7187 14.8539 18.1827 10.5809 18.1827C6.30777 18.1827 2.84375 14.7187 2.84375 10.4456C2.84375 6.17252 6.30777 2.7085 10.5809 2.7085C14.8539 2.7085 18.318 6.17252 18.318 10.4456Z" stroke="#949896" stroke-width="1.06719" stroke-linecap="round" stroke-linejoin="round"/>
</svg>
